<mxfile host="Electron" modified="2024-05-09T15:16:06.144Z" agent="Mozilla/5.0 (Windows NT 10.0; Win64; x64) AppleWebKit/537.36 (KHTML, like Gecko) draw.io/24.2.5 Chrome/120.0.6099.109 Electron/28.1.0 Safari/537.36" etag="DyFp7K4YJU33yF0heHN9" version="24.2.5" type="device">
  <diagram name="Page-1" id="yVxbVoCsJgrxHDC4eWpE">
    <mxGraphModel dx="1886" dy="2220" grid="1" gridSize="10" guides="1" tooltips="1" connect="1" arrows="1" fold="1" page="1" pageScale="1" pageWidth="827" pageHeight="1169" math="0" shadow="0">
      <root>
        <mxCell id="0" />
        <mxCell id="1" parent="0" />
        <mxCell id="MpaLouSDAzyBsc086wj5-1" value="" style="sketch=0;points=[[0,0,0],[0.25,0,0],[0.5,0,0],[0.75,0,0],[1,0,0],[0,1,0],[0.25,1,0],[0.5,1,0],[0.75,1,0],[1,1,0],[0,0.25,0],[0,0.5,0],[0,0.75,0],[1,0.25,0],[1,0.5,0],[1,0.75,0]];outlineConnect=0;fontColor=#232F3E;fillColor=#E7157B;strokeColor=#ffffff;dashed=0;verticalLabelPosition=bottom;verticalAlign=top;align=center;html=1;fontSize=12;fontStyle=0;aspect=fixed;shape=mxgraph.aws4.resourceIcon;resIcon=mxgraph.aws4.eventbridge;" vertex="1" parent="1">
          <mxGeometry x="110" y="90" width="60" height="60" as="geometry" />
        </mxCell>
        <mxCell id="MpaLouSDAzyBsc086wj5-4" value="" style="sketch=0;points=[[0,0,0],[0.25,0,0],[0.5,0,0],[0.75,0,0],[1,0,0],[0,1,0],[0.25,1,0],[0.5,1,0],[0.75,1,0],[1,1,0],[0,0.25,0],[0,0.5,0],[0,0.75,0],[1,0.25,0],[1,0.5,0],[1,0.75,0]];points=[[0,0,0],[0.25,0,0],[0.5,0,0],[0.75,0,0],[1,0,0],[0,1,0],[0.25,1,0],[0.5,1,0],[0.75,1,0],[1,1,0],[0,0.25,0],[0,0.5,0],[0,0.75,0],[1,0.25,0],[1,0.5,0],[1,0.75,0]];outlineConnect=0;fontColor=#232F3E;fillColor=#E7157B;strokeColor=#ffffff;dashed=0;verticalLabelPosition=bottom;verticalAlign=top;align=center;html=1;fontSize=12;fontStyle=0;aspect=fixed;shape=mxgraph.aws4.resourceIcon;resIcon=mxgraph.aws4.chatbot;" vertex="1" parent="1">
          <mxGeometry x="405" y="90" width="60" height="60" as="geometry" />
        </mxCell>
        <mxCell id="MpaLouSDAzyBsc086wj5-6" value="" style="outlineConnect=0;dashed=0;verticalLabelPosition=bottom;verticalAlign=top;align=center;html=1;shape=mxgraph.aws3.chime;fillColor=#03B5BB;gradientColor=none;" vertex="1" parent="1">
          <mxGeometry x="690" y="80" width="60" height="70" as="geometry" />
        </mxCell>
        <mxCell id="MpaLouSDAzyBsc086wj5-40" style="edgeStyle=orthogonalEdgeStyle;rounded=0;orthogonalLoop=1;jettySize=auto;html=1;exitX=0.5;exitY=0;exitDx=0;exitDy=0;exitPerimeter=0;entryX=0.5;entryY=1;entryDx=0;entryDy=0;" edge="1" parent="1" source="MpaLouSDAzyBsc086wj5-7" target="MpaLouSDAzyBsc086wj5-23">
          <mxGeometry relative="1" as="geometry" />
        </mxCell>
        <mxCell id="MpaLouSDAzyBsc086wj5-7" value="" style="sketch=0;points=[[0,0,0],[0.25,0,0],[0.5,0,0],[0.75,0,0],[1,0,0],[0,1,0],[0.25,1,0],[0.5,1,0],[0.75,1,0],[1,1,0],[0,0.25,0],[0,0.5,0],[0,0.75,0],[1,0.25,0],[1,0.5,0],[1,0.75,0]];outlineConnect=0;fontColor=#232F3E;fillColor=#007FFF;strokeColor=#ffffff;dashed=0;verticalLabelPosition=bottom;verticalAlign=top;align=center;html=1;fontSize=12;fontStyle=0;aspect=fixed;shape=mxgraph.aws4.resourceIcon;resIcon=mxgraph.aws4.codepipeline;" vertex="1" parent="1">
          <mxGeometry x="110" y="250" width="60" height="60" as="geometry" />
        </mxCell>
        <mxCell id="MpaLouSDAzyBsc086wj5-42" style="edgeStyle=orthogonalEdgeStyle;rounded=0;orthogonalLoop=1;jettySize=auto;html=1;exitX=1;exitY=0.5;exitDx=0;exitDy=0;exitPerimeter=0;" edge="1" parent="1" source="MpaLouSDAzyBsc086wj5-8" target="MpaLouSDAzyBsc086wj5-9">
          <mxGeometry relative="1" as="geometry" />
        </mxCell>
        <mxCell id="MpaLouSDAzyBsc086wj5-8" value="" style="sketch=0;points=[[0,0,0],[0.25,0,0],[0.5,0,0],[0.75,0,0],[1,0,0],[0,1,0],[0.25,1,0],[0.5,1,0],[0.75,1,0],[1,1,0],[0,0.25,0],[0,0.5,0],[0,0.75,0],[1,0.25,0],[1,0.5,0],[1,0.75,0]];outlineConnect=0;fontColor=#232F3E;fillColor=#007FFF;strokeColor=#ffffff;dashed=0;verticalLabelPosition=bottom;verticalAlign=top;align=center;html=1;fontSize=12;fontStyle=0;aspect=fixed;shape=mxgraph.aws4.resourceIcon;resIcon=mxgraph.aws4.codecommit;" vertex="1" parent="1">
          <mxGeometry x="110" y="410" width="60" height="60" as="geometry" />
        </mxCell>
        <mxCell id="MpaLouSDAzyBsc086wj5-52" style="edgeStyle=orthogonalEdgeStyle;rounded=0;orthogonalLoop=1;jettySize=auto;html=1;exitX=1;exitY=0.5;exitDx=0;exitDy=0;exitPerimeter=0;" edge="1" parent="1" source="MpaLouSDAzyBsc086wj5-9">
          <mxGeometry relative="1" as="geometry">
            <mxPoint x="350" y="439.66666666666674" as="targetPoint" />
          </mxGeometry>
        </mxCell>
        <mxCell id="MpaLouSDAzyBsc086wj5-9" value="" style="sketch=0;points=[[0,0,0],[0.25,0,0],[0.5,0,0],[0.75,0,0],[1,0,0],[0,1,0],[0.25,1,0],[0.5,1,0],[0.75,1,0],[1,1,0],[0,0.25,0],[0,0.5,0],[0,0.75,0],[1,0.25,0],[1,0.5,0],[1,0.75,0]];outlineConnect=0;fontColor=#232F3E;fillColor=#007FFF;strokeColor=#ffffff;dashed=0;verticalLabelPosition=bottom;verticalAlign=top;align=center;html=1;fontSize=12;fontStyle=0;aspect=fixed;shape=mxgraph.aws4.resourceIcon;resIcon=mxgraph.aws4.codebuild;" vertex="1" parent="1">
          <mxGeometry x="250" y="410" width="60" height="60" as="geometry" />
        </mxCell>
        <mxCell id="MpaLouSDAzyBsc086wj5-10" value="" style="sketch=0;points=[[0,0,0],[0.25,0,0],[0.5,0,0],[0.75,0,0],[1,0,0],[0,1,0],[0.25,1,0],[0.5,1,0],[0.75,1,0],[1,1,0],[0,0.25,0],[0,0.5,0],[0,0.75,0],[1,0.25,0],[1,0.5,0],[1,0.75,0]];outlineConnect=0;fontColor=#232F3E;fillColor=#7AA116;strokeColor=#ffffff;dashed=0;verticalLabelPosition=bottom;verticalAlign=top;align=center;html=1;fontSize=12;fontStyle=0;aspect=fixed;shape=mxgraph.aws4.resourceIcon;resIcon=mxgraph.aws4.s3;" vertex="1" parent="1">
          <mxGeometry x="410" y="290" width="60" height="60" as="geometry" />
        </mxCell>
        <mxCell id="MpaLouSDAzyBsc086wj5-11" value="" style="sketch=0;points=[[0,0,0],[0.25,0,0],[0.5,0,0],[0.75,0,0],[1,0,0],[0,1,0],[0.25,1,0],[0.5,1,0],[0.75,1,0],[1,1,0],[0,0.25,0],[0,0.5,0],[0,0.75,0],[1,0.25,0],[1,0.5,0],[1,0.75,0]];outlineConnect=0;fontColor=#232F3E;fillColor=#DD344C;strokeColor=#ffffff;dashed=0;verticalLabelPosition=bottom;verticalAlign=top;align=center;html=1;fontSize=12;fontStyle=0;aspect=fixed;shape=mxgraph.aws4.resourceIcon;resIcon=mxgraph.aws4.device_farm;" vertex="1" parent="1">
          <mxGeometry x="414" y="520" width="60" height="60" as="geometry" />
        </mxCell>
        <mxCell id="MpaLouSDAzyBsc086wj5-13" value="" style="verticalLabelPosition=bottom;verticalAlign=top;html=1;shadow=0;dashed=0;strokeWidth=1;shape=mxgraph.ios.iPhone;bgStyle=bgGreen;fillColor=#aaaaaa;sketch=0;" vertex="1" parent="1">
          <mxGeometry x="590" y="480" width="60" height="130" as="geometry" />
        </mxCell>
        <mxCell id="MpaLouSDAzyBsc086wj5-18" value="" style="shape=image;verticalLabelPosition=bottom;labelBackgroundColor=default;verticalAlign=top;aspect=fixed;imageAspect=0;image=data:image/png,iVBORw0KGgoAAAANSUhEUgAAAgAAAAIACAYAAAD0eNT6AAAACXBIWXMAAAsTAAALEwEAmpwYAAAAAXNSR0IArs4c6QAAAARnQU1BAACxjwv8YQUAACQqSURBVHgB7d3fj153fSfwz/c8M5PAJjBWAS3qQp65Q904mUgEtaVsxpcthdgXuwJUKZO/IOYOtaEeL2zVuzh/gSdSGyLtxThpQ6W98XhLFhaQMiSo4s5PAIldCPJkSymJ5znfPecZOw1JnNiZZ+zvOef1kib+IUMyx+c5n/f38/1xIgAAAAAAAAAAAAAAAAAAAAAAAAAAAAAAAAAAAAAAAAAAAAAAAAAAAAAAAAAAAAAAAAAAAAAAAAAAAAAAAAAAAAAAAAAAAAAAAAAAAAAAAAAAAAAAAAAAAAAAAAAAAAAAAAAAAAAAAAAAAAAAAAAAAAAAAAAAAAAAAAAAAAAAAAAAAAAAAAAAAAAAAAAAAAAAAAAAAAAAAAAAAAAAAAAAAAAAAAAAAAAAAAAAAAAAAAAAAAAAAAAAAAAAAAAAAAAAAAAAAADgQFIAB7J6/tLy7bfHcn05VnPEcvt7KcW4zrHbfMBmX3WK3b292Nk5dmQ3uKZPbG2Mq6XXlkfNZW1/nVJajpyWc9ST9te5riZ1Ve/+02f/aieAAxEA4Aa1BX9hFOujUXVvjrzW/Nb4ev+3uQkFzQ87KecLdcT29z9zZDsGarx1cvmOhTtWo4rjTWC6N0Vqi/7ydf8f5LyTI+3EdO/py9O886MTfz0J4LoJAHAdZkV/qXqkKdxrTbFai/mZNEVsO9f1E0MJA3f/3aNrqUoPNdfxeNxIwX8XTRjbbloET7z42b/aDOBdCQDwDj75j5fagr/efFQebH6cW7G6hkme5tPf+09HNqNnZqP9pTseqVI6GXETrmOO7cuvXT6tKwDXJgDA22hG/OOFpfRYFbNR6s3WmyBwkwv/W+SIM5dfvfy4IABvJQDAm3zyuVdONa3+kzdhxP9uJq+9lo/tHDsyiQ5qW/3VKJ2NG1gjcUiajsD0tKkB+G0CAFzRjPpXl5ZmBWs1ClJH2vj+pz94OjqiHfXfedudp5qHy8koSDMtsGlaAP6NAACNT37r0skU6VQBo/63NZvTvpwfLr0b8Il/+Mp4KS+ej1s/6r+WyV6enrCNEAQAiPv/1yuPtS3/KF/RUwJXWv5bEWWGqN9S119+4U//25mAAasCBuz+514525Hi3xovLqXn73/uUlFTFK3/+Pd/+VBT/NuRf/nFv1VVj9397KOnAgZMB4DBmhX/yOvRMTnaw4Tyse99+kgRbey2+I+qvBkdVOe88cPPfr0z6ytgngQABqmrxf+qUkJAl4v/60wHMFACAIPzqW+/cqoZ+m1E993SNQFXFvw9H11p+7+DepqP/fBzX98OGBBrABiU+//npfWeFP/WeGlptujupnvDav/OF/9WVaWtT2x9ZRwwIAIAg9Ge7hdVeiz6ZfWT33rlpn9Pi3lhI8rd6nfjUiwv3rZwNmBABAAGY3ExnS11n/9BVCmfbN9ZEDfJ0Wf/fD1Feih6pvme1u75+7/oyo4QODABgEFoW/9zfotfUZoW9k0Zvbat/5RG/d0+l6pTpgIYCgGA3mtb/2mU+r7ne9x0ATbikPWu9f9mpgIYEAGA3lu6vWrb1ePouVSlR5qwc2hTHLPRfw9b/2/WTgW0pxoG9JwAQK/NFv7V3d3vfyNSxPLCwuG9gOfK6H8Q0iicEkjvCQD02m2LcTwGMPq/6rC6AEMZ/V+lC8AQCAD0Wk7pkRiQtgswGs1/seOQRv9XVdUsPEJvCQD01u/vb40bx8BU1fxDTzMifiAGJz20unWyd9tG4SoBgN6apliPAWq3O85zGuBKK3wcQ5NieW/hjuLevAjzIgDQWykNcdS6b3E0v/b1kFvhpgHoMwGAXhpq+/+qalTNL/ykGGyQalLkgwE9JQDQS3spBt26zZHXYg5WtzaaqYQ05Gs5bq7BOKCHBAB6qerxsb/XaTyPdQB7C3uDnwOf3uYa0E8CAD2V7oqBm8d2wGo06NH/TKrzOKCHBAD6avCFq/lwH3wnQFb8UqruDeghAYDeOczz8LskpYMvgsyRxjFwOeWVgB4SAOid228PASDaY4Grg0+DpPhgDF7lGtBLAgD9szfc7X/zliILU64BPSUAAO/kSAC9JAAAwAAJAPTPQkwCgHckAADAAAkA9M53/uDIJAB4RwIA/ZTzSwHANQkA9FOKnQDgmgQAeqnOsR0AXJMAQC8tZB0AgHciANBLv9mLnRyxGwC8LQGAXto5dmS3sg4A4JoEAHqr3stPBABvSwCgty5P45xpAIC3JwDQW+00QIQuAMDbEQDotVEVZwKAtxAA6LXZscBZFwDgzQQAeq8axUYA8FsEAHpv/+VA+XQA8DoBgEF47bU4EykmAcCMAMAgzA4GmuaHA4AZAYDB+M5njmybCgDYJwAwKN/99JGNlLwpEEAAYHBefTWfsB4AGDoBgMHZf1FQPiYEAEMmADBI7dZAIQAYMgGAwXo9BITXBgPDIwAwaG0I+O6nl+/LkR8PgAERAKDxvU8fOdmEgIdNCQBDIQDAFU0I2JxNCXh5EDAAAgC8wWxK4I+OrOsGAH0nAMDbaLsB3/3D5RVBAOgrAQDewdUgUNX7UwM5YjcAemAhgHe1/x6B/SOEf/8fL63lKo7nHGuR0r0B0EECANygN4aBVhsI6hzLzVTB6uw3UoyjAHXKFwLgGgQAOKArgaB1LgA6whoAABggAQAABkgAAIABEgAAYIAEAAAYIAEAAAZIAACAARIAAGCABAAAGCABAAAGSAAAgAESAABggAQAABggAQAABsjrgInV85eWb789lvf2yniPfZ+kKnZHzdd3/uDIJOAm+8TWxrj9cWFhb3z19/b2Fia/id3dyYkzu8GgCQAD88l/vLQWOVZHo+reHHkt51hOKZbrumkH6Qcdivbafuq52bN20lzvSaT8gzSN7dear51jRzyEObDx1snlOxbuWK1GeTVHeiBFWm1/O2J65U+k1//s0mgaS3Fn3PPNr0bkvJNTTFLkC/U07fzwc1/fDgYjBb3XFv1RVT1U53y8LfZBMZpAsB11fuLyfhiYRGHu+eajk+YxcVcM2+SFP/naShSmLfp3Lr3/eNNmeuhKwZ/HZ7sNqdu5uSeFgf4TAHqqbesvLFWPpJxPKvrd0IzcNnNdP/H9zxzZjkIIADNFBYBP/MNXxgv1wskqpYciDvWzPWkGDWf2Xtt7+kcn/noS9I4A0DMKf/fNRmA5ny4hCAgAM0UEgLbwL+aFjWa0/1DcXG0Q2GyCwBOCQL+Y9e2RT37r0snFxXSxiryh+HdX83e3VlXp/P3PvXK2CXTjYNDaVv/dzz56aikvXrwFxX/2n9B0GzaWbls8f/TZP18PekMA6IG2SNz/rd3zzYf0MYW/P1Lk9cWl9Hwb7IJBuvvvHl37wG13Pt8W4Lj1ximNzh795qPnP7H1lXHQeQJAx33q2//voWbU/3w7agx6p5mjW26D3ZVugHA3IHc/+5enqlE6H1HW9tymC7G2tLT4vG5A9wkAHfapb79yKup606i//9puwFLTDTAl0H9ty78dZVcpb0SpUrt9eHS2nZoIOksA6Kh2RBh1wQ8IDsO4CQHn73/u0mrQS+1Cv7bl346yowPaqYmjz371bNBJAkAHtcW/HREGQzRuhl9CQA+1xX8pLxbX8n83TQdyXQjoJgGgYxR/0mzvtxDQJ10t/lcJAd0kAHRIO+ev+NNqQ0DTJt6yJqAfluqFreho8b9qFgK++dXHgs4QADpithXMnD+/rV0TsGV3QLfNimZKvejmNMH05D1//xe2rXaEANAB7Siv3QoW8FarC4uVldgd1W6la4tm9EmqTv3es39ueqoDBIAOaFd+B1xDlfLJ2Vse6ZR23j+lUf/CW4rlhaisB+gAAaBws73+HZ8b5PBVVXJQUMe05/pHXz/bzZTGPc8+uhEUTQAo2GyBl3l/rs94YaFnreQe22/935Jz/W+i9Igjg8smABRscTE2Aq5TqtIjugDd0MvW/5s1UwGLty1au1QwAaBQ7eg/pb6PEJindmugLkD5rpyhP44BaO7J4+0LjYIiCQCFMvrnvdAFKN8gRv9v0NyTBjKFEgAKZPTPe6ULULYro+FxDEjbBVjdOimUFkgAKNDiyKt9ee8qI65ipVGsx9CkWK6X7hBKCyQAFCiN0iMB793YuQBlSlE9GAOUUzwQFEcAKMyVs92dosVBrQVF2W//50G2wtvXG5sGKI8AUBjtf+YhpWTEVZiqiuMxYPXiv1sPiiIAFKaZIxz0Q4L5SCnW7AYozMDb4ClV9wZFEQCKk+4KmIOFBVNJZenHG//eq5x0N0sjAJTHQ5v5SO6lUjgMZ2ZsHUBZBICC3P/cJQ9s5qaZBhgHRWim9hS+mWXXoSACQEFGtYcE81NF9cGgCCnrxrSmt+25DgURAAoyzUZszE9d1ysBJcm1QU5BBADoqyrpAJTCdAwFEgAKYs6WeWrfCxBQkBTVOCiGAFCQOsVuwJzkcD9RmJzdkwURAAqSag9s5qjOr8QB5UgXY/CSz+Wc5CQAlEQAAK4tx4FDRPfVrsG8pEoAKIgAUJJR7ATMSVVVBx69JyO2dtjqGszJyDRnUQSAglx+LSYBc5Lr+qU4qOyebC7CJJiP3/zKIKcgAkBBdo4d2bVwi3mZ5oN3lHJVT2LgciRFax5y7O6cOOP5VhABoDBVMg3AfCwuHvxeGsXSdgzcKKY+k/OQ8g+CoggAhck5Xwg4qBST7/zBkUkc0M4fb0wGvQq+HbV+9q8EgHnIsR0URQAoTFX7kHBwKaftmJNBh1Kj1rmpKs+20ggAhfnOZ45sWwfAQe1N66djTlIa7oM757QZzEGa7Pzx17eDoggARcpPBLxHbYCcTudXtKtXR5sxUKPXRtvBgaWct4PiCAAFGtVxLuA9qiKda3eUxJzsnNhod6dsx+DkC833PgkOLFUGNSUSAArUTgMMue3KwUzreu4P2zzNp2NgtP/nRfu/VAJAoeosMXPjmpH6zvebABlz9sPPtQ/wNInBSJMXP/u1zeDAch5eeOwKAaBQ3/v0kc12K1fADcmPxyEZ0oNc0ZoXQapkAkDBPIS4IU1gnAXHQ7L/IB9CF0DRmhfPsLIJAAVrH+bWAnC9qpSPxSGrp/XD0XOK1rwIUqUTAApX5/zlgHeRm9b/PE7+ezftWoCe7wi4oGjNR/VqdeiBlIMRAArXdAF2UhICeAdN6//fvT824iYZpdHD/TweOO1Wr47Wg4Nruii2UJZPAOiA//2HR86YCuBa2tb/9n1HblpBbt8PkKOHUwG1ojUnF1747Nc3guIJAB3RdAEetiuAN2uniG5G6//NXvyTr59rRnmHtuPgpmu+lxf+9GtnggNKE12U7hAAOqJ9yLcjPe8J4Kq6GbF+/4+O3LKi1YzyTuY+HFud0077vQQH1E6hVMd0UbpDAOiQ/ZGeEMD+or/vf+bIRtxio1cXmsKZOvy63GbE+lp1Ijigpvhnxb9rBICOaRcFCgHDlnN+orkPihixtu8J2F/t3cUQ0LarFa2Du1L8P7vR4SA4TAJAB7UhYFTl+6wJGJ627f+9PzqyHgW5GgKaUNqdl1g1bf/mv/k+xf+gmhCl+HeWANBRV9cEND/1wRuAtuPTLvgroe3/dtoQ8OKffO1EU1g7cIhOfqJp+7cjf120g9gPUYp/h6Wg8z713KWN5q/yVNBPTaenafuf2J/+Kd/RZ7+6nlJ7P+ZxFCXttlv9bsVq/3u++ehm8+9/KPqi3TVh4WTn6QD0wHc/fWSjqvKKKYE+yqff/758X1eKf6s9Sa9K7bqAonYIXGhb/rb6HVSadR4V/37QAeiZ+5+7tD/6yjEOOixfqKpYvxV7/Ofp1ncDbt2o/4263wFormOOZtT/XzeC3hAAeuj3v31pvDeN41WVHhEEuqYp/HVsfOczR7ajR25+ENgvWM1c/5kS5vq7GwDKuo7MlwDQc7OOQMR681f9QFCkdoFfivz4+98fZ27mkb63wuo3Hz1ep7TefNMPxuG40Hydq14dbZZUsDoYAC5UsXcmXr1tW+HvLwFgINquwLSOtZTjeFTpXp2BW+dKwf9B89PtZrS/3bfR/vVY/YeN5n6crqWquR9zG07zcrwn7UuJZtfyXJVG59r3FESBSg8Azf34UvuWxyrV2/GbpXOK/jAIAAO19vyl5d/8Klb3UqxWOZabO2EcHIqUYneaY5Lq2B0tNgW/4/P6h2H1f2ysxt7euM6xun8vpnH7+2l2bzbhIKfdnNrDr/KkSVC7VVXvxGhpJ/4lJl0oVvtTIHktStHcj801bK5ltRuvLhjlAwAAAAAAAAAAAAAAAAAAAAAAAAAAAAAAAAAAAAAAvL0UDNbF8RfGMU2rzW2wvP8O9kLkvLPyk2+ci4549+uYd9v3r0e9N4l/uTxZ2T3n3evALScADMTF5ePLccftbZE6nlLcG6ktWLEcBWpuys27fvzkw1Goi//hC2tVxAM5pbX3eB13Uo6dOvLT8c//ui0QRPxs6xPjxdHiWs5pnFK+K/av6XKKNA7mJ8duTrm933brnF9KqZrEtN75VfxqZ+XERDAdGAGg59piNSv6VXooCi34b1ZiADjU65jzdo78xMpPntqMgbi4NV6+Y/SB9RT5gea6rkVH7s0+a0PpNOoLqY5zHz7xw+2g9wSAnrr4sS80D9emWKXZw7VTSgoAbeFPKZ26OdcxT1KdN+u9eGLl/zw1iR76xdbda2nUXM/o3n05KO2UVcrbl6eXT3/0xI8mQS8JAD1z8WP/pWnxjx5r/mrH0VElBICbW/jfbD8I3PXTp05HT/z8maPrVbSFv6C1JlynvCkI9JMA0BMX//0Xxmkxne3iiP/NbmUAaNdKpDvf31zHOB63XJ7knE93eWpgf8RfnQ2FvwcEgb6pgs67+PEvnkxL1fN9KP630qx78oH3Xyyj+LfaBXHV2Zc+9qWzs0WcHdIu6nv5maPnm+J/PhT/nkjri9XS+Z9vHV0PekEHoMPKGq3Oz63oALz0sS8+llM6GcVqugGv5WNdWBvwf7eOHh+NUjvqt7Cvt3QD+kAHoKNmLf8PvO/5vhX/m60NUZOPffF82cW/1XQDmi7PxY99sei/718+ffSxpvhvheLfc/vdgLbTE3SWANBBs+K/lM53eaFfCa6EqPMdmjpZTiltvfTxLz4UhWm39f3ymaNnyw9SzE2K8eJo6fmXn76nuPuR6yMAdIziPx9vuI6r0TE50mZJIWC2p7/6wPnmv2s9GJr29MtNIaCbBIAOUfznY7Z2YqltU6dxdFQpIeBq8U8pOhekmCMhoJMEgI64UrQU/zmo7nzfqS6O/N+sCQFnLv7uf76l38edozvPKv7MNCGg3fYZdIYA0BV3vu+M4n9wL338S6d6NE+9nEYLW7dqi+Avn767DVIWofK6NKq2LAzsDgGgA2b7/FPSXjugdgolR2xEr6RxuvN9Z+Mma0/2y6naCPhty+3ugEtbq3aBdIAAULjZvP/+Eaoc0P4USg+ldPxmbg9sR3iVe5JrSTHeq6bujw4QAEq3mDbCnuoDa1v/fZ5CaTpEN+20wFG1uBFO9+MdNPfjSesByicAFGz2Rj+t/wPrZ+v/LZbjjtsPfW3D7KU+7kmuQ6qqs6YCyiYAFGz2NjoObr+L0nvNA/eRw+4CaP1z3WZTAbWDoQomABSqHf1b9X9wszUUwxmxHmoXoB39h9Y/NyCleEQXoFwCQKFSNdJmnYeBjP6vOswugNE/78GyLkC5BIACXfzdL61GzmvBgTUjkAdiWJbjA+9bjzl7eetou8tgHHCD2i5AUCQBoERVlpjnYKjTKCnHgzFneRTrAe/Nsh0BZRIACjTAUeshqYZ5Sl1KaxfHXxjHnLT7/lOkuYcKhiONTGmWSAAozKz9H2kcHNigg1Q9vyN6R6PFtYADycctBiyPAFCakbn/ebg4/rO1GPQBSvO7j1KE8/45qOW92PPSqMIIAKXJaS04uLpeiwFLUc2t+9G0/01JcWCpGuiUXMEEgMKY/5+TPPhX1C7PYx3Az5/9vfY6at1ycCnfGxRFACjIxfF6+6D1sJ2DJkjdFUM3TQcOQdVro3HAXCRTAIURAIpijmyOXMt08H37ufLQZm6Wf7a1Og6KIQCUZDo1+p+DK50UIh34OiSH/zBHIx3OoggARUk+HPNw+bVx0H64Dz4NkrKpFOZnNNVRKogAUJKUBYB5WKxcR4B3IQAURQeAsqTsnmR+kmdcUQSAkuSYBBQkpzgSMC/ZGoCSCAAUp454KShCynEpYE5yypOgGAJAUfJuQEGaB7Z7EnpKAChJnSZBU3XyTlCGnHRjmJuURpOgGAJASRaXJkEbAIw6y+HvgrnJe+6nkggABVmZbO5m898Rv/qNDkApkm4M8/OREzvup4IIAMXJ2zFsOyu754wSClGPph7YzEXK4V4qjABQnkF/SNLAv//SLL42m5YSyDi4lHy2CyMAlKbK52LA6pyfDopx5MROU/xNA3BweVr7bBdGACjMyuSpSZOUt2Oo/vlft4Oi5Ege3BzYKEaCZGEEgALlnC/EADXt/03z/+VZmFaD7kpxcDniQtNNmgRFEQBKVC2diQGq6/qJoDj7D+7BL07lANI0bwbFEQAK1G4HHOA0wGTlp09tB0UyDcB7lXJMPnTixc2gOAJAoXJKp2NAco5Bfb9d00wDbIbdALwXQ17TVDgBoFArk7/ZHtAHZ7Lykyc3g2K1uwGakPZ4wA2qpsMazHSJAFCwnKYPxwAY/XfDQl21a1N0Abh+TWi0+K9cAkDB2i2BOfpdHJvv72mj/25ouwCp5/cj89PO/Y/2QyOFEgBKt78jYBK9lHajqk8GnfE7n3/hjB0BXI9c59NG/2UTAAo3e0FQFSeih3LUp2cHH9Epo+monZoyFcA1pUibVv6XTwDogJXJkzs58pejR5rRweMrP/6G9mAHtaM6UwFcS9v6t/CvGwSAjmiLZTNf3pdV2Dux8K8bQWfNpgJydnATb1HV1Qmt/24QADpk5cdPnszdf+hOclWfWJk48rfrRvXopFe88kbNIOXLTfF3T3SEANAxKz/5xnqHQ0Bb/I+Z9++HdldAM9o7lnq7SJUb0W7n/fBskShdIQB0UEdDgOLfQ7MQMBUChm5W/B98YSPoFAGgo2YhoCMLsXKKC7n69X2Kfz+1872zEGA6YJDatr/i300CQIet/PjJjSZ5t1uyJlGoXNenV156cs2cf7+1IeB3HnzhvnBc8GA0XZ/dnKpj2v7dJQB0XHuKXttaL/C9AU3Lvzq28tOnNoLB+NCDL5xsCkO7ZVXg67Fm1H+h6frc9+HP7WwHnSUA9EDbWh+/9LfHyugGpN12amK/5f8328HgtFsER01xcGJg/8xG/W3L//MvrNnq130CQI/sdwOW7ruyNmASN1nzcGj+/dP72qkJLf9ha4vDhz7/4rEmBDxsgWA/vD7q1/LvjRT00sXxF8YxrdZSilPNL8dxaNoRf348ql+fKaXoXxz/2Vqq6/MxcG0gu+vHTxbxRsmXnzm6niKdyod6L3IY2sIfqdrQ7u8fAWAA2oIY9bR9AD8Qc3kAt0W/fjqq0WbEr3ZKG+0LAPtKCgBXtUEgR2ruxXggKNas1Z/jiVxV5xT+/loIeu/KXHz71RTHL63GNFYj5eYrraac7m0y/vK1/9dNsU/xUuR6p5kx2okqb69M/tZ2L96TZlpgs/lh89LW6ng6mq61YaCZh7y3GWUuB7dYaj7n+Vxb9Ed7sdOe8RD0mgAwMO2LhSLeul97NmXwlj9r3z6H48oCss0rX/HzZ1dXq+l0NXJabQLnOGaBIC0nwWDu8myHRm5H+JNRip0c1eTyNHY+alHf4AgAzCj23Eof+ezO2wZT4PDYBQAAAyQAAMAACQAAMEACAAAMkAAAAAMkAADAAAkAADBAAgAADJAAAAADJAAAwAAJAAAwQAIAAAyQAAAAAyQAAMAACQAAMEALAXANL2/dfSZG6YNRgJzTS5FiN03zpI7p5CMn/mkngPdMAACubVQdb/55VxQgpSs/GaWmdbkQLz9zT/OLvF3n/INUx7kPn/jhdgDXTQAAOiytVSmtxSgeefnpeyaR8vbl6eXTHz3xo0kA78gaAKAfUoybf6wvjpYuvvzM0fO/2Lp7LYBrEgCAHkpraVSdb4PAz7Y+MQ7gLQQAoMfSWtsR+MXTRx+7tLW6HMDrBACg91JKJ6dV/bxuAPwbAQAYhhTjthvwy6fvPhWAAAAMS07VhhAAAgAwQG0IePmZo2cDBkwAAAYqrQsBDJkAAAxYWm93CAQMkAAADFq7Q+AXW/ecDBgYAQAYvDSKx5wcyNAIAACNVFVnHRbEkAgAAK0U471qansggyEAAFyxvx7AVADDIAAAvEEaJV0ABkEAAPgtaU0XgCEQAADeRBeAIRAAAN5CF4D+EwAA3oYuAH0nAAC8rbTqXAD6TAAAeHvLl0fT4wE9JQAAXEMV1QMBPSUAAFxT1gGgtwQAgGtb/tnW6jighwQAgHcwGk3XAnpIAAB4BymncUAPCQAA7yCldFdADwkAAO8gR14J6CEBAOAdpAgdAHpJAACAARIAAGCABAB6aG8SzEXKcSmAXhIAoKfqiJfigHLKuzFwTQga/DWgnwQAemdl8tQkaBy8eOeIV2Lg6uQa0E8CAL2U5zD67bwckziglNMkBi5FuhjQQwIA/ZRjJ4ZudPC1EDkdPER0Xc5ZmKSXBAD6SeHaXZn894OHoGk9+CCV6ixM0ksCAP1UVediwJpR6w9iDhZiYfDFbxQjAYBeEgDoqVnhGu7q7RRzCUBHTuzspgFPpzTf+6S5BpOAHhIA6KWVyeZupDTckVuV59YByREXYqhS2g7oKQGA3sq5fjqGaWeeWyFzXQ92OiVPB3sPMQACAP1V3bYZA5wGyDkejzn68IkfbscAr2Pb/v/QiRcHvZaEfhMA6K12GqBpXz8RQzOqt2PO5h0qOkH7n54TAOi3KjZjQFLE5mGchLhQV2diYKppOh3QYwIAvbYyeXJnSCO5uqoPpWi1uwGaHwYzH54ibVr9T98JAPReTtOHYwAOa/R/VT3d24iBMPpnCAQAeq8tijl6P4c9OazR/1UfOfFPO5H7v6bC6J+hEAAYhmppo/nnJHoq5zh9M96COKqrk9HzHQFG/wyFAMAgzHYEVFUvpwJyigsrP3lyM26C2cmAEb0tkG2QMvpnKAQABmNl8jfbPZwKmESq1+Mm+p3Pv3CmKZXb0TPtkccffvCFjYCBEAAYlJUfP3myT7sCchUnbkbr/81G09GJ1KMplfbQn6quTgQMiADA4OS02D7oJ9FxOfKXZ9scb4F2KmA63WuvYy/WA9TN9JDWP0MjADA4++sB6mPR4RCQ6/r0yo+/cUsP55ntCpjmL0fHNdNCX/7w53a2AwZGAGCQZlsDOxoCZsX/p09tRAE+dOLFzSYEdHZxZbvo78OzNQ0wPClgwC6OvzBOdXW++ek4OmDW9r/FI/+38/LW0fUYpbPRIbPib9EfAyYAMHgXx+vLUb96JkV6KIqVmmmLdKLdyRCFakLA8SshYDkKVzddi4+03QsYMAEArrj48S9tNB+IU1GYdp9/u9XvVqz2v1GXtlbH9ag+nwvtqFxd7X/kxM4tWTwJJREA4A3KmhJoRv1x6xf73agmBCxPq3qjebo8EgVpQsmFhWl1/MqLjWDwBAB4Gxc/9qX1lGbdgHHcAu2Lfdqz/bsw6r+Wl585eryZVnnsVncDmmu5m6f5yx/S8offIgDAO7jZQSC3r9ytqjMlz/XfqF8+c0/7/oBHbnYQaAt/nePxhbo6Y9QPbyUAwHVog0BUsd7MIT8Qc9e2+vPjUf26Kfznelmo2rUB09F0rekInDrsIKDww/URAOAGtGsEYlqtNZ+ctr3dhIH8Hla8NwU/5R80w/3tZrS/3afR/vV4+ZnV45Hr401n5cE8xx0D7Rx/FXGumlabCj+8OwEADuDi+EurEdU46jyOqJuvpqClNH79D+Q82f9JmjQVahKj2In49aSvI/0b9Yu/W11LdX08p1htive9NxIIcqQfpJy3I1U7o2mcU/ThxggAQDF+1kwVLCzEuJlqaYPAcop6uWnnL6dUTa78kd3L09j5qHP7AQAAAAAAAAAAAAAAAAAAAAAAAAAAAAAAAAAAAAAAAAAAAAAAAAAAAAAAAAAAAAAAAAAAAAAAAAAAAAAAAAAAAAAAAAAAAAAAAAAAAAAAAAAAAAAAAAAAAAAAAAAAAAAAAAAAAAAAAAAAAAAAAAAAAAAAAAAAAAAAAAAAAAAAAAAAAAAAAAAAAAAAAAAAAAAAAAAAAAAAAAAAAAAAAAAAAAAAAAAAAAAAAAAAAAAAAAAAAAAAAAAAAAAAAAAAAAAAAAAAAAButf8PZXu3zG5L8wMAAAAASUVORK5CYII=;" vertex="1" parent="1">
          <mxGeometry x="570" y="90" width="60" height="60" as="geometry" />
        </mxCell>
        <mxCell id="MpaLouSDAzyBsc086wj5-21" value="" style="sketch=0;points=[[0,0,0],[0.25,0,0],[0.5,0,0],[0.75,0,0],[1,0,0],[0,1,0],[0.25,1,0],[0.5,1,0],[0.75,1,0],[1,1,0],[0,0.25,0],[0,0.5,0],[0,0.75,0],[1,0.25,0],[1,0.5,0],[1,0.75,0]];outlineConnect=0;fontColor=#232F3E;fillColor=#E7157B;strokeColor=#ffffff;dashed=0;verticalLabelPosition=bottom;verticalAlign=top;align=center;html=1;fontSize=12;fontStyle=0;aspect=fixed;shape=mxgraph.aws4.resourceIcon;resIcon=mxgraph.aws4.sns;" vertex="1" parent="1">
          <mxGeometry x="250" y="90" width="60" height="60" as="geometry" />
        </mxCell>
        <mxCell id="MpaLouSDAzyBsc086wj5-23" value="EventBridge" style="text;html=1;align=center;verticalAlign=middle;whiteSpace=wrap;rounded=0;" vertex="1" parent="1">
          <mxGeometry x="110" y="150" width="60" height="30" as="geometry" />
        </mxCell>
        <mxCell id="MpaLouSDAzyBsc086wj5-24" value="SNS" style="text;html=1;align=center;verticalAlign=middle;whiteSpace=wrap;rounded=0;" vertex="1" parent="1">
          <mxGeometry x="250" y="150" width="60" height="30" as="geometry" />
        </mxCell>
        <mxCell id="MpaLouSDAzyBsc086wj5-25" value="Chatbot" style="text;html=1;align=center;verticalAlign=middle;whiteSpace=wrap;rounded=0;" vertex="1" parent="1">
          <mxGeometry x="405" y="150" width="60" height="30" as="geometry" />
        </mxCell>
        <mxCell id="MpaLouSDAzyBsc086wj5-26" value="Slack" style="text;html=1;align=center;verticalAlign=middle;whiteSpace=wrap;rounded=0;" vertex="1" parent="1">
          <mxGeometry x="570" y="150" width="60" height="20" as="geometry" />
        </mxCell>
        <mxCell id="MpaLouSDAzyBsc086wj5-27" value="Chime" style="text;html=1;align=center;verticalAlign=middle;whiteSpace=wrap;rounded=0;" vertex="1" parent="1">
          <mxGeometry x="690" y="160" width="60" height="30" as="geometry" />
        </mxCell>
        <mxCell id="MpaLouSDAzyBsc086wj5-28" value="CodePipeline" style="text;html=1;align=center;verticalAlign=middle;whiteSpace=wrap;rounded=0;" vertex="1" parent="1">
          <mxGeometry x="110" y="310" width="60" height="30" as="geometry" />
        </mxCell>
        <mxCell id="MpaLouSDAzyBsc086wj5-29" value="CodeCommit" style="text;html=1;align=center;verticalAlign=middle;whiteSpace=wrap;rounded=0;" vertex="1" parent="1">
          <mxGeometry x="110" y="470" width="60" height="30" as="geometry" />
        </mxCell>
        <mxCell id="MpaLouSDAzyBsc086wj5-30" value="Codebuild" style="text;html=1;align=center;verticalAlign=middle;whiteSpace=wrap;rounded=0;" vertex="1" parent="1">
          <mxGeometry x="250" y="470" width="60" height="30" as="geometry" />
        </mxCell>
        <mxCell id="MpaLouSDAzyBsc086wj5-31" value="S3" style="text;html=1;align=center;verticalAlign=middle;whiteSpace=wrap;rounded=0;" vertex="1" parent="1">
          <mxGeometry x="410" y="350" width="60" height="30" as="geometry" />
        </mxCell>
        <mxCell id="MpaLouSDAzyBsc086wj5-32" value="Devicefarm&lt;div&gt;&lt;br&gt;&lt;/div&gt;" style="text;html=1;align=center;verticalAlign=middle;whiteSpace=wrap;rounded=0;" vertex="1" parent="1">
          <mxGeometry x="410" y="580" width="60" height="30" as="geometry" />
        </mxCell>
        <mxCell id="MpaLouSDAzyBsc086wj5-34" value="" style="verticalLabelPosition=bottom;verticalAlign=top;html=1;shadow=0;dashed=0;strokeWidth=1;shape=mxgraph.ios.iPhone;bgStyle=bgGreen;fillColor=#FFFFFF;sketch=0;strokeColor=none;" vertex="1" parent="1">
          <mxGeometry x="700" y="480" width="60" height="130" as="geometry" />
        </mxCell>
        <mxCell id="MpaLouSDAzyBsc086wj5-35" value="IOS" style="text;html=1;align=center;verticalAlign=middle;whiteSpace=wrap;rounded=0;" vertex="1" parent="1">
          <mxGeometry x="590" y="640" width="60" height="30" as="geometry" />
        </mxCell>
        <mxCell id="MpaLouSDAzyBsc086wj5-36" value="Android" style="text;html=1;align=center;verticalAlign=middle;whiteSpace=wrap;rounded=0;" vertex="1" parent="1">
          <mxGeometry x="700" y="640" width="60" height="30" as="geometry" />
        </mxCell>
        <mxCell id="MpaLouSDAzyBsc086wj5-37" style="edgeStyle=orthogonalEdgeStyle;rounded=0;orthogonalLoop=1;jettySize=auto;html=1;exitX=1;exitY=0.5;exitDx=0;exitDy=0;exitPerimeter=0;entryX=0;entryY=0.5;entryDx=0;entryDy=0;entryPerimeter=0;" edge="1" parent="1" source="MpaLouSDAzyBsc086wj5-1" target="MpaLouSDAzyBsc086wj5-21">
          <mxGeometry relative="1" as="geometry" />
        </mxCell>
        <mxCell id="MpaLouSDAzyBsc086wj5-39" style="edgeStyle=orthogonalEdgeStyle;rounded=0;orthogonalLoop=1;jettySize=auto;html=1;exitX=1;exitY=0.5;exitDx=0;exitDy=0;exitPerimeter=0;entryX=0;entryY=0.5;entryDx=0;entryDy=0;entryPerimeter=0;" edge="1" parent="1" source="MpaLouSDAzyBsc086wj5-21" target="MpaLouSDAzyBsc086wj5-4">
          <mxGeometry relative="1" as="geometry" />
        </mxCell>
        <mxCell id="MpaLouSDAzyBsc086wj5-41" value="" style="edgeStyle=orthogonalEdgeStyle;html=1;endArrow=block;elbow=vertical;startArrow=none;endFill=1;strokeColor=#545B64;rounded=0;" edge="1" parent="1">
          <mxGeometry width="100" relative="1" as="geometry">
            <mxPoint y="439.33" as="sourcePoint" />
            <mxPoint x="100" y="439.33" as="targetPoint" />
          </mxGeometry>
        </mxCell>
        <mxCell id="MpaLouSDAzyBsc086wj5-44" style="edgeStyle=orthogonalEdgeStyle;rounded=0;orthogonalLoop=1;jettySize=auto;html=1;exitX=1;exitY=0.5;exitDx=0;exitDy=0;exitPerimeter=0;entryX=-0.044;entryY=0.541;entryDx=0;entryDy=0;entryPerimeter=0;" edge="1" parent="1" source="MpaLouSDAzyBsc086wj5-11" target="MpaLouSDAzyBsc086wj5-13">
          <mxGeometry relative="1" as="geometry" />
        </mxCell>
        <mxCell id="MpaLouSDAzyBsc086wj5-46" style="edgeStyle=orthogonalEdgeStyle;rounded=0;orthogonalLoop=1;jettySize=auto;html=1;" edge="1" parent="1" source="MpaLouSDAzyBsc086wj5-45" target="MpaLouSDAzyBsc086wj5-47">
          <mxGeometry relative="1" as="geometry">
            <mxPoint x="350" y="550" as="targetPoint" />
          </mxGeometry>
        </mxCell>
        <mxCell id="MpaLouSDAzyBsc086wj5-45" value="" style="shape=waypoint;sketch=0;fillStyle=solid;size=6;pointerEvents=1;points=[];fillColor=none;resizable=0;rotatable=0;perimeter=centerPerimeter;snapToPoint=1;" vertex="1" parent="1">
          <mxGeometry x="340" y="430" width="20" height="20" as="geometry" />
        </mxCell>
        <mxCell id="MpaLouSDAzyBsc086wj5-47" value="" style="shape=waypoint;sketch=0;fillStyle=solid;size=6;pointerEvents=1;points=[];fillColor=none;resizable=0;rotatable=0;perimeter=centerPerimeter;snapToPoint=1;" vertex="1" parent="1">
          <mxGeometry x="340" y="540" width="20" height="20" as="geometry" />
        </mxCell>
        <mxCell id="MpaLouSDAzyBsc086wj5-48" style="edgeStyle=orthogonalEdgeStyle;rounded=0;orthogonalLoop=1;jettySize=auto;html=1;entryX=0;entryY=0.5;entryDx=0;entryDy=0;entryPerimeter=0;" edge="1" parent="1" source="MpaLouSDAzyBsc086wj5-47" target="MpaLouSDAzyBsc086wj5-11">
          <mxGeometry relative="1" as="geometry" />
        </mxCell>
        <mxCell id="MpaLouSDAzyBsc086wj5-49" value="" style="shape=waypoint;sketch=0;fillStyle=solid;size=6;pointerEvents=1;points=[];fillColor=none;resizable=0;rotatable=0;perimeter=centerPerimeter;snapToPoint=1;" vertex="1" parent="1">
          <mxGeometry x="340" y="310" width="20" height="20" as="geometry" />
        </mxCell>
        <mxCell id="MpaLouSDAzyBsc086wj5-50" style="edgeStyle=orthogonalEdgeStyle;rounded=0;orthogonalLoop=1;jettySize=auto;html=1;entryX=0.567;entryY=1.1;entryDx=0;entryDy=0;entryPerimeter=0;" edge="1" parent="1" source="MpaLouSDAzyBsc086wj5-45" target="MpaLouSDAzyBsc086wj5-49">
          <mxGeometry relative="1" as="geometry" />
        </mxCell>
        <mxCell id="MpaLouSDAzyBsc086wj5-51" style="edgeStyle=orthogonalEdgeStyle;rounded=0;orthogonalLoop=1;jettySize=auto;html=1;entryX=0;entryY=0.5;entryDx=0;entryDy=0;entryPerimeter=0;" edge="1" parent="1" source="MpaLouSDAzyBsc086wj5-49" target="MpaLouSDAzyBsc086wj5-10">
          <mxGeometry relative="1" as="geometry" />
        </mxCell>
        <mxCell id="MpaLouSDAzyBsc086wj5-132" value="AWS Cloud" style="points=[[0,0],[0.25,0],[0.5,0],[0.75,0],[1,0],[1,0.25],[1,0.5],[1,0.75],[1,1],[0.75,1],[0.5,1],[0.25,1],[0,1],[0,0.75],[0,0.5],[0,0.25]];outlineConnect=0;gradientColor=none;html=1;whiteSpace=wrap;fontSize=12;fontStyle=0;container=1;pointerEvents=0;collapsible=0;recursiveResize=0;shape=mxgraph.aws4.group;grIcon=mxgraph.aws4.group_aws_cloud;strokeColor=#232F3E;fillColor=none;verticalAlign=top;align=left;spacingLeft=30;fontColor=#232F3E;dashed=0;" vertex="1" parent="1">
          <mxGeometry x="40" y="40" width="760" height="760" as="geometry" />
        </mxCell>
        <mxCell id="MpaLouSDAzyBsc086wj5-133" value="CI/CD Pipeline" style="text;strokeColor=none;fillColor=none;html=1;fontSize=24;fontStyle=1;verticalAlign=middle;align=center;" vertex="1" parent="1">
          <mxGeometry x="350" y="-40" width="100" height="40" as="geometry" />
        </mxCell>
      </root>
    </mxGraphModel>
  </diagram>
</mxfile>
